<svg width="70" height="78" viewBox="0 0 70 78" fill="none" xmlns="http://www.w3.org/2000/svg">
<path d="M61.6667 49.6666L47.7867 41.7333L45.305 40.705H36.6683V61.3316H25.0017C24.08 61.3316 23.335 62.0783 23.335 62.9983C23.335 63.9183 24.08 64.665 25.0017 64.665H37.8917L55.3933 74.6666H45C44.0783 74.6666 43.3333 75.4133 43.3333 76.3333C43.3333 77.2533 44.0783 78 45 78H61.6667C62.5883 78 63.3333 77.2533 63.3333 76.3333V51.3333C63.3333 50.4133 62.5883 49.6666 61.6667 49.6666ZM60 73.4616L40 62.0316V45.6166L60 57.0466V73.4616ZM54.2983 20.3383L66.3833 22.7416C68.1883 23.1016 69.3617 24.855 69.0017 26.6616C68.6433 28.4666 66.8883 29.64 65.0817 29.28C65.0817 29.28 53.555 26.99 52.005 26.68C51.38 26.5566 50.7833 26.25 50.2983 25.765L47.9417 23.4083C49.7483 21.6016 50.7183 19.2666 50.85 16.895H50.855L54.2983 20.3383ZM25.7083 40.665L22.1417 49.2766C21.61 50.56 20.3683 51.3316 19.06 51.3316C15.305 51.3333 3.33333 51.3316 3.33333 51.3316C1.49167 51.3316 0 49.8383 0 47.9983C0 46.1583 1.49333 44.665 3.33333 44.665L16.8333 44.6683L19.615 37.9516C21.2883 39.5416 23.4183 40.4883 25.7083 40.665ZM65.5783 41.8866C64.8733 43.5883 62.9233 44.395 61.2233 43.69L45.9683 37.3716L26.5683 37.37C24.84 37.3866 23.1067 36.7416 21.7883 35.4233C19.185 32.82 19.185 28.5983 21.7883 25.995L31.445 16.3383H28.575L18.33 23.1833C16.8 24.2066 14.73 23.795 13.7067 22.2633C12.6833 20.7333 13.095 18.6633 14.6267 17.64C14.6267 17.64 24.175 11.26 25.705 10.2383C26.235 9.88331 26.88 9.67164 27.565 9.67164H40.8983C42.5967 9.67831 44.2933 10.3283 45.5883 11.625C48.1917 14.2283 48.1917 18.45 45.5883 21.0533L39.2667 27.375L30 27.3766C29.0783 27.3766 28.3333 28.1233 28.3333 29.0433C28.3333 29.9633 29.08 30.71 30 30.71L46.6583 30.7083C47.1 30.7116 47.52 30.8016 47.905 30.96C49.9017 31.7866 63.7733 37.5316 63.7733 37.5316C65.475 38.2366 66.2817 40.1866 65.5783 41.8866ZM45.585 11.625C42.9817 9.02164 42.9817 4.79997 45.585 2.19664C48.1883 -0.406693 52.41 -0.406693 55.0133 2.19664C57.6167 4.79997 57.6167 9.02164 55.0133 11.625C52.41 14.2283 48.1883 14.2283 45.585 11.625Z" fill="#E2181A"/>
</svg>
